/* XPM */
static char *_615362218674[] = {
/* columns rows colors chars-per-pixel */
"64 64 128 2 ",
"   c #0F0E0D",
".  c #100F0E",
"X  c #0F100F",
"o  c #12110F",
"O  c #151412",
"+  c #191714",
"@  c #171814",
"#  c #1B1916",
"$  c #1D1C19",
"%  c #211E1B",
"&  c #24211E",
"*  c #28231F",
"=  c #262421",
"-  c #292622",
";  c #2C2A25",
":  c #2F2D29",
">  c #302C27",
",  c #322E29",
"<  c #35322D",
"1  c #39342E",
"2  c #373530",
"3  c #3A3631",
"4  c #3D3934",
"5  c #3F3E38",
"6  c #413C36",
"7  c #433E39",
"8  c #483F3B",
"9  c #45423C",
"0  c #49443D",
"q  c #4C493F",
"w  c #474641",
"e  c #4C4641",
"r  c #4E4942",
"t  c #524D45",
"y  c #544F48",
"u  c #584F48",
"i  c #545047",
"p  c #56514A",
"a  c #5B554D",
"s  c #5D584E",
"d  c #5D5750",
"f  c #5E5951",
"g  c #61594F",
"h  c #635C54",
"j  c #685F56",
"k  c #655E58",
"l  c #666056",
"z  c #696156",
"x  c #666159",
"c  c #6B645B",
"v  c #6E685E",
"b  c #72675E",
"n  c #71695E",
"m  c #7A6B5F",
"M  c #6D6660",
"N  c #6F6962",
"B  c #706760",
"V  c #746C63",
"C  c #796E65",
"Z  c #766F68",
"A  c #786F69",
"S  c #767066",
"D  c #7A7166",
"F  c #777169",
"G  c #7C746B",
"H  c #7E786D",
"J  c #7F7770",
"K  c #7E7870",
"L  c #827466",
"P  c #81766C",
"I  c #827A6E",
"U  c #837770",
"Y  c #847C72",
"T  c #887E73",
"R  c #878174",
"E  c #8A8275",
"W  c #8D8579",
"Q  c #8F887C",
"!  c #908375",
"~  c #91867B",
"^  c #938A7D",
"/  c #998E7F",
"(  c #97907F",
")  c #958D81",
"_  c #998E82",
"`  c #979081",
"'  c #9C9385",
"]  c #9F9887",
"[  c #9E9589",
"{  c #9F998B",
"}  c #A19686",
"|  c #A39985",
" . c #A19689",
".. c #A49A8C",
"X. c #A99D8C",
"o. c #A59D90",
"O. c #A99E91",
"+. c #ABA18E",
"@. c #B0A38C",
"#. c #ACA293",
"$. c #AFA699",
"%. c #AFA89A",
"&. c #B1A595",
"*. c #B4A996",
"=. c #B2A799",
"-. c #B4AA9A",
";. c #B9AD9D",
":. c #BCB29E",
">. c #B7ACA0",
",. c #BAAEA0",
"<. c #BEB3A2",
"1. c #C1B59E",
"2. c #C2B6A5",
"3. c #C5B9A6",
"4. c #C3B6A9",
"5. c #C5BAAA",
"6. c #CABDAC",
"7. c #CBBEB0",
"8. c #CCC1AE",
"9. c #D1C2AE",
"0. c #CEC2B1",
"q. c #D2C6B4",
"w. c #D5C9B5",
"e. c #D8CBB6",
"r. c #D5C7B8",
"t. c #D6CAB9",
"y. c #D9CCBA",
"u. c #DBD1BD",
/* pixels */
"| | | / | X.| } ^ B 5 @ 3 D l 0 ] *.v o # D *./ , o i +./ , # R +.9 & W ^ & i +.0 : +.n @ E +.& 3 *.W O 2 -.-.4 X 3 *.<.&.3 & q ",
"^ ^ / / R S h 7 = @ ; l P s 6 @ a #.+.a o & D @./ 6 @ q ] / 6 * H | 9 < ` D & R ! & S ( & h *.4 ; +.W @ 4 -.+.* X l :.:.v O o < ",
"* * * & # O X o : l ~ m r D c @ O c &.+.j % O a | +.z * , H | j - l ' t 3 ( z < ' g < X.q 1 @.s $ ] ( # 6 ;./ # # ^ :.X.- X O i ",
"O   o   o $ 9 m ' ^ q 0 b } #.s O O p ..@.R 6 O ; n | ( s : 9 T E 0 q E z 9 E g r ` 4 v ( * E E $ E | & 9 ;.T O > &.1.n X X q &.",
"@ $ ; 9 z ! | | v : t n 5 F -.#.z % o < D +.+.I q - > i R E v t a D n i n S t H g f T 1 ` t i | ; c +.; 9 ;.H . q :.*.4 X - ] :.",
"D E / | +.| P 3 & j V t # $ V &.*.E 9 % O > g E ' ( H l q i l n v l l n z z V h V g n c p W < ] t 9 *.6 5 -.C o g :.( $ X l :.<.",
"+.+.| } P 0 # ; D V p I 6 . @ t ^ *.#.! c 9 , ; 1 9 a l n V c V H 9 E H 4 ^ n a n V k V s D s z T : X.p > -.n o S <.n o & +.:.:.",
"| ^ v 6 @ o 9 ^ V 0 P &.| i @   % 0 S ^ { ..` ^ I D n c z ^ t p #.- W R ; #.f < &.v p b V s P 0 ^ 3 E V ; #.n O R :.q   i :.:.G ",
"9 - o   * z | v 6 c a ' ;.&.R q ; # @ $ - < 5 e a f v I : ` n 2 #.3 S W ; +.i 0 ;.5 9 #.V c c c N j f ~ - ..D # Q -.1 O R 1.| ; ",
".   # 0 E X.l > V t # > S +.*.;.| ^ Y D H U H V V j r #.6 h ' ; ` g i ] : } a r #.: c ;.5 w D C d Y 0 ] < E I $ ^ +.= & X.:.l o ",
"O 3 D | | a * V l f &   O < g D E W R D j p a h F _ - R T > ..u s Q 3 | 5 E x r +.; R ` # N ;.v c V p E q V E % ( ] # 9 ;.+.; o ",
"L } +.) 0 $ n n h | Q q & o o o @ $ - 6 h B V l 2 o.z < | a i ^ 4 ^ r H x x I 0 X.: ( H & X.] = p n V x v a _ * ^ ^ O h 1.I @ o ",
"+.+.I < O z T 0 F #.:.*.( R m n V R ^ E c f n +.4 r o.p 0 ' r v D i E r W r ^ 5 ] 2 ` l 3 :.s # Q } S g I q } > Q E @ F 2.i o < ",
"' l & @ j ' 9 c 0 r W +.*.*.*.@.' S t r M v < H X.4 r ` j r E a n v v c C s T r ^ 9 ^ f p -.< e 3.^ q c D t ^ 2 E T $ Q *.< @ H ",
"4 o @ j X.i t c - X # : 5 0 9 < = 2 N F M ' V = v ] c 9 V G s V v n v V l H l b F a T f x { & E :.3 % S n z Y q H I & ] ' $ < #.",
"o # z +.v > G h h < $ O O # - q I ) x k p y +.E 9 0 V P v x V N n n S v V n v D x V S h V E ; =.I @ l :.E n N f V T - #.I O f <.",
"& m @.R & c z D -.#.( E E ( #.+.G 0 c S E 3 2 V ) Y M k M V D V D S c I c H V B v G c B V D 9 ;.9 < -.:.a c c S l R : #.v @ R 2.",
"! +.^ > 5 E i I #.<.:.:.*.| V 3 3 H c h ^ #.G y t f k Z V A S l H V j R j I c G B F x D B v f O.= S 5.h O r n D s R 3 #.p = +.<.",
"@.] 3 & ! g h 9 < r s p 4 & & s ^ f N p - e V H G V V D B D c V S v c D n l W l D D v D n v n E - $.^ $ 2 ] ^ S s E 3 #.0 3 ;.' ",
"] 9 o c ( 9 n ,     X o & r ^ ` t c S #.^ v f x M V G v G c V V n v V S V l W i [ c V D v b H n r <.r & ' 8.' S l E 9 +.3 p <.c ",
"9 o 9 +.i s z n s i f D ] -.W 3 v V a 6 v H V c M G M G M V B B V V V V V M D F v j ~ C B B T s S ..& M 8.' : r c Y 0 X.< v -.6 ",
"o * / W > H l +.<.:.1.2...f - N F x I l t a V V Z M D B V V D Z D D D C S V B R t o.h B V V Y t ^ v : -.#.: O w D G i  .< T | & ",
"# L &.q q G l ( X.{ E d - = D E p V Y { ' H x M V G V B V D D D V D D D D S N G c Y r | D V I u { 0 k 2.i O d :.} D a ` < ) E # ",
"n *.I & I s c < = % @ O 3 ^ ' 0 D c 5 : 4 l G N G V V Z G G A A D F V A D G S S J p  .A s D G f ' 2  .~ # i <.0.{ V h W 4 { v O ",
"&.+.1 4 / r v - O # 4 C #.[ 3 N N V X...] V x A B v V D P A G A H D C A H D G Z G c W 2 ^ E G x R 0 ;.0 < *.5.H - i c R 9 o.i = ",
"*.z @ G I u n D T ` *.1.) , y W f B a r 6 M F V V S F D A A P P L P D D V G H G V Y y ) ] j D N S x ' = R 8.S $ O e m I q ..5 w ",
"E * 1 X.i z z X.3.<.#.c & 7 ..p V N k S ) V B A G Z F G P P L L D G P D G Z P D V G v ' < f T S c R x 9 <.E $ $ N ;.R H t ..< v ",
"1 O C | < P j E E h < O 9 O.V y V V ` R t M Z Z Z Z G Z A L L L P P P P A G A T G c ^ w G 4.W G l ) 6 R -.> = W 8.q.' D a ` < W ",
"O < X.D 3 T g 0 @ o # s =.^ , R j V w 6 R F V Z V Z G A U P m L P P J G G F Z V Y V B N =.u r G c W 7 ;.h $ R 8.4.Y r V h ^ 2 ..",
"# D -.7 u I h u ; r E 2.{ < h Y k V ~ $.v k A D G Z G G P U m m I G J K J Z H T D G x ..6 0 W Y B D c ..- x 8.-.t @ @ k c T 5 %.",
"9 &./ * H v z V +.<.5.] < 2 X.y F M V 6 f Y M G G Z G P P P C L U I Y G G K v G Y V R a c 4.-.Y D h ) j 4 :.%.5 O $ e Y v J r <.",
"/ ;.h % } p V b *.-.F - * ^ W 0 Y c B E { p G Z G G Z J P P L L T P U G G F R B H F F v -.x ; p Y h { < Q <.0 O 4 ) 6.:.V G d ;.",
",.| ; 6 O.7 P k N 3 @ & T ;.6 B V V C I 0 Y v Z G D G G P L L I U P J G J F N ) W J c { w 2 S Q G V H 0 2.c @ r -.0.0.<.H S c  .",
"<.C O b | 1 T h p @ < Q 2.N > { p G M c W G v V A D G G P P P P I U J J G K N d C V W y M <.8.#.D Y a Q ' % r ,.0.;.S 9 a V S T ",
"#.1 % ' E 1 ~ s M V -.6.E & v _ r J M D K t W v A A P D D G P Y T G G U K K W { E J k K >.N 4 5 S Y i %.9 4 -.8.^ 2 @ O 9 V H v ",
"v @ 6 -.c 6 ) u C O.6.E = 2 =.j k Z Z V M ) x G B G P P P I U U U A P U J N f p Z F G ' 4 < p N G V I I ; ..6.D & O $ 4 c V T s ",
"* @ V ;.0 t _ t D P k % = ` $.< W k G M D V c I A Z D G P P P J G J J J J T ) o.Y G Y 5 H <.q.8.E z { 6 Z 7.V $ $ r ' 5.3.P R 0 ",
"O - | #.> k / r P v < = E 4.x < O.r E z V Z W h T V A D D G G P U J K J Z N d d K K d #.-.Y f h G S J w 2.Y $ ; Y 5.q.w.8.E I 6 ",
"O p 2.W $ D ~ 8 Y c c _ 0.) & v  .7 ) h D G C P V Y V D D G G G U Y J V M Z o.' G V { x ; - ; 2 V E y ' [ = < { q.q.3.' S c T 6 ",
"* ^ 2.c $ ^ E 6 ~ h A &...< ; =.G 8 [ a G D V D A Y F F Y P G Y Y Z A T ) J w Z H R e a Q ;.<.-.I G k -.4 < O.q.2.I 4 $ @ 0 P t ",
"u ;.-.6 = O.H 3 _ u P D 7 # I 2.7 x ) y Y B B H D D J G Y P J G Z J Y c y ) o.J Z f o.<.=...O.-.R x { l : ..q...9 @ O @ O 6 G f ",
"| 2._ % 6 ;.B 3 ..r Y c u k 6.Q * ) Y u ^ c V H n D G A J D J V Y V f )  .e Z Z U o.B 4 = $ $ 7 G V ) ; ` 0.T ; @ # 3 l R Q S S ",
"4.2.c O s 2.h 1 O.0 E j D O.,.5 2 <.h h _ p E n B T b U V G B E s T ' 0 U o.J R M 7 y V T T k d V ) 0 H 8.F & @ 9 Q 2.q.t.5.D R ",
"2.&.1 # G 2.t 3 -.0 Y k D P k # I <.2 D ) r ' u E c P A V D I h ..r G #.w J Z k Y >.5.6.0.y.y.O.G Z d 5.D $ : K 3.w.w.w.t.8.G ) ",
"5.Y + * ..,.6 6 ;.e V C B B v d 4.) =  .T 0 O.8 o.r { t { u ' c c &.7 ) ) V R _ G p 8 3 7 d ) ) R y $.J % 9 ..0.q.0.=.W S N c ' ",
";.w O 7 ,.&.> 8 <.t g ) u I b I #.0 2 2.z t -.5 X.p E v V W r -.7 _ T d J Z a e y d h y 2 $ = V c ) ^ = i ;.r.<.W r - # @ $ f ) ",
"Y % + b 5._ % t 2.u 0 O.6 ^ h P V r D 6.7 k ;., ..c c ' 8 ;.8 ' G u ' Z Z W o.>.4.7.q.r.5._ f A V { > f 3.0._ 0 $ @ @ @ @ $ f Y ",
", # * [ 6.U O h 3.p 5 ;.0 I B S B D T _ ; T =.> o.Z i -.2 #.k k O.M J Z M d w 4 5 w h T 4.u.>.B [ 0 x 7.<.j & @ # = 3 y f f F B ",
"# + e 2.4.g O B 6.a , >.g u  .e ~ h I B j ..~ , >.B r 2.5 ) ) M Y J Y Y E W E D f 5 % $ 3 W ) Q d h 7.o.6 # $ 5 K #.3.q.w.q...p ",
"% % T 3.-.6 # T 6.u ; =.G 2 =.r U V V L A G C V _ A M ) N J A N c h h k A E #.5.q.7...d % : G Z d 2.~ ; # w ) <.r.q.9.w.w.q.X.i ",
"+ 6 1.6. .* % _ 3.t = #.) =  .G 0 O.r ~ k P A b Y B A Y Z M V T [ [ Q c 0 ; = 4 B =.y.q.Q d Y f ,.G * > Y 5.q.r.r.0.5.2.3.5.} h ",
"% T 6.6.B # , &.5.0 = O.o.- P O.> _ P r X.t T U a ~ G d A [ T y 7 u E >.6.$.A 2 # : A 7.q.) x o.V = a %.q.r.2.{ Z t 5 < < 6 j V ",
"u 4.3.1.7 + 8 2.2.6 * O.=.> g 4.0 p ;.6 A ..6 ~ W 7 T ..s 6 U >.o.d - , v -.q.2.V - # h $.V [ c , K 7.q.-.A 5 = # @ # @ # # r Q ",
";.7.6.~ % + b 7.=., * O.,.2 6 2.V ; &.T , O.Y ,  .' < c <.E 2 7 _ 7.O.y $ : I 9.w._ > * x ) k 7 o.r.=.c > # # @ @ # # @ @ # u { ",
"6.7.3.t $ % _ q...= - #.2.5 > ,.[ % I ,.3 g 4.d 2 =.' : p <.#.e * z 2.7.Y ; $ h 5.y.' t R k d <.<.F > # $ = 2 y c F J H v r x ~ ",
"6.7.~ * # 4 ;.7.T % > =.5.0 = O.;., r 6.A %  .=.< t 3.) = r ,.<.d # t ;.q.' < # h 0.8.^ k F <.) 6 $ = 9 B ..<.0.w.t.t.y.t.0.) V ",
"0.,.6 $ $ v 8.6.B $ 3 1.4.e % _ 6.r ; =.=.- u 6.T % C 7.I % t 4.4.d # 9 ;.e.' > $ F o.M ) o.f = : h ] 5.q.w.w.e.w.w.w.w.t.q.' i ",
",.k $ $ ; O.9.3.e # e 6.4.8 # ~ 7.k + ~ 7.y * ..3.9 - ..7.h # h 7.2.t # t 3.r.Y % w V ' T 2 < N $.0.w.w.q.8.8.:.<.3.8.q.y.0.) e ",
"v 6 $ $ j 6.0.#.; # h 7.4.6 + T q.G + j q.T # j q.~ % q 6.;.4 % T r.=.1 # V q.0.f N ) d 2 N >.r.q.4.+.R l r 5 2 < 2 9 a H ..Y c ",
"~ h 4 < =.q.q.G $ $ U q.2.2 $ T r.) # e 6.=.; , ;.2.7 % ~ e.E % , -.t.E % ; #.8.) K w M >.0.<._ c 4 & & % # $ % % # @ # # < x ` ",
"_ P j T 7.q.2.8 $ = X.w.=.; % T r.} % < 2.6.9 # ~ w.I # t 6.6.r @ c q.6.q @ h ) x x #.<.{ c 3 & # # $ $ $ $ $ @ @ $ $ $ $ 4 x -.",
"8 ..h U X.8.E % $ 9 4.q.[ % % ) e...% ; -.q.l O c q.-.; % ..e.~ $ : -.y.W < f B ` $.K 9 = $ = 2 0 s v F H R H V h 9 : $ # 9 G ' ",
"- m | u ! E p $ $ D r.q.U # %  .w.| = = X.e.I # 9 6.8.t # z q.2.2 $ G t.$.V ^ ) f < : 5 f R { <.8.q.w.t.w.w.u.w.w.8.;.W y y ) h ",
"s < &.D a ^ j r : $.r.7.d # ; =.e.[ % % ..e.^ # > ;.w.n O 7 6.q.h # e $._ Y t : w F o.<.0.q.q.q.q.q.q.q.w.w.w.w.w.w.y.y.0.E _ < "
};
