/* XPM */
static char *_615362227392[] = {
/* columns rows colors chars-per-pixel */
"64 64 255 2 ",
"   c #141C0D",
".  c #131913",
"X  c #18270E",
"o  c #1B320F",
"O  c #192914",
"+  c #1D3516",
"@  c #252D19",
"#  c #243918",
"$  c #1C1C2D",
"%  c #271B30",
"&  c #1C2A2D",
"*  c #293A26",
"=  c #262939",
"-  c #2A3637",
";  c #353230",
":  c #473C3D",
">  c #1D4218",
",  c #294819",
"<  c #2E551B",
"1  c #34581C",
"2  c #3A671B",
"3  c #316D1E",
"4  c #274829",
"5  c #2E4D2F",
"6  c #2B5827",
"7  c #375726",
"8  c #334837",
"9  c #375738",
"0  c #386726",
"q  c #306A2F",
"w  c #377727",
"e  c #366537",
"r  c #44741D",
"t  c #485635",
"y  c #456829",
"u  c #487726",
"i  c #486836",
"p  c #507137",
"a  c #567838",
"s  c #607C3F",
"d  c #2E194E",
"f  c #1C2F51",
"g  c #2F314E",
"h  c #301B70",
"j  c #1D2D66",
"k  c #313176",
"l  c #47334F",
"z  c #431E73",
"x  c #4E316F",
"c  c #6E2E72",
"v  c #364748",
"b  c #375748",
"n  c #3C4656",
"m  c #324F51",
"M  c #3B6950",
"N  c #1F416B",
"B  c #2B4B6F",
"V  c #366B6D",
"C  c #4B5251",
"Z  c #615655",
"A  c #476748",
"S  c #4F704F",
"D  c #577747",
"F  c #556859",
"G  c #657848",
"H  c #666952",
"J  c #6A7757",
"K  c #727B57",
"L  c #504E6A",
"P  c #495568",
"I  c #574C7A",
"U  c #575777",
"Y  c #675371",
"T  c #526C6A",
"R  c #6E706E",
"E  c #747769",
"W  c #676875",
"Q  c #747474",
"!  c #787679",
"~  c #813D79",
"^  c #954F5B",
"/  c #9F576C",
"(  c #887973",
")  c #B36971",
"_  c #C67A4E",
"`  c #C57C65",
"'  c #39882B",
"]  c #498925",
"[  c #55872A",
"{  c #489626",
"}  c #588636",
"|  c #589331",
" . c #63893D",
".. c #6B9833",
"X. c #649739",
"o. c #6BA538",
"O. c #77AF38",
"+. c #3F824D",
"@. c #54894A",
"#. c #698847",
"$. c #669748",
"%. c #759949",
"&. c #778757",
"*. c #728D51",
"=. c #77B749",
"-. c #71AC50",
";. c #4C8972",
":. c #758C6A",
">. c #74B067",
",. c #7EC258",
"<. c #85B93C",
"1. c #8CCB3A",
"2. c #86965A",
"3. c #8DB04A",
"4. c #A9B757",
"5. c #8C8D6E",
"6. c #999577",
"7. c #A4977B",
"8. c #93AA71",
"9. c #ABB06D",
"0. c #D58F59",
"q. c #D9B553",
"w. c #E3B04F",
"e. c #E2A45F",
"r. c #CF9071",
"t. c #CFB16F",
"y. c #95CE4C",
"u. c #A8D849",
"i. c #AED052",
"p. c #B5E54F",
"a. c #8FCC6A",
"s. c #B3D26D",
"d. c #B7F060",
"f. c #CFD152",
"g. c #C3E350",
"h. c #CFCE6A",
"j. c #CCE37F",
"k. c #301A92",
"l. c #1D318D",
"z. c #2F2893",
"x. c #291AA7",
"c. c #3519A9",
"v. c #351AB4",
"b. c #1B2EA8",
"n. c #3023A5",
"m. c #511B91",
"M. c #50318E",
"N. c #6C3593",
"B. c #4B1CAE",
"V. c #4F27AC",
"C. c #5826B9",
"Z. c #6F36B0",
"A. c #244E90",
"S. c #2F638D",
"D. c #2555A3",
"F. c #5A4F86",
"G. c #6C4C8F",
"H. c #65548A",
"J. c #6C5696",
"K. c #635B9E",
"L. c #76599B",
"P. c #786886",
"I. c #71698D",
"U. c #787587",
"Y. c #734BAA",
"T. c #7857A7",
"R. c #7848B5",
"E. c #5623C8",
"W. c #6D35CB",
"Q. c #7A43CB",
"!. c #8F4C91",
"~. c #A15C9D",
"^. c #887A88",
"/. c #8F7293",
"(. c #897899",
"). c #B27391",
"_. c #8B52AD",
"`. c #8755B5",
"'. c #8E6CAD",
"]. c #987AA6",
"[. c #8D6BB3",
"{. c #997AB7",
"}. c #A676B0",
"|. c #CE74B3",
" X c #8E54CF",
".X c #9758C9",
"XX c #A75AD4",
"oX c #9867C7",
"OX c #9D6DD0",
"+X c #A479C7",
"@X c #AD6ED5",
"#X c #B678DA",
"$X c #9255E4",
"%X c #A75FE4",
"&X c #AE6EE6",
"*X c #D373D2",
"=X c #C866E1",
"-X c #518F86",
";X c #788987",
":X c #998886",
">X c #92928C",
",X c #88869A",
"<X c #A99687",
"1X c #AF8F93",
"2X c #94AF8D",
"3X c #A8A987",
"4X c #B0AD93",
"5X c #958DAC",
"6X c #AE8FB0",
"7X c #98A1A9",
"8X c #B2AFAF",
"9X c #CD9290",
"0X c #CCAD93",
"qX c #CC91AF",
"wX c #C898B6",
"eX c #D1B1B1",
"rX c #E2B2A4",
"tX c #ACD18F",
"yX c #B1D193",
"uX c #B4CBAC",
"iX c #CED08F",
"pX c #CECDAE",
"aX c #D3DCA4",
"sX c #A885C5",
"dX c #B68AC9",
"fX c #AC92CB",
"gX c #B897C9",
"hX c #B789D7",
"jX c #BA97D7",
"kX c #B8AACC",
"lX c #B987E3",
"zX c #D28FCD",
"xX c #C888D6",
"cX c #C598D9",
"vX c #C9A8C9",
"bX c #CFB5CC",
"nX c #C8A8D8",
"mX c #D7ABD9",
"MX c #D7B9D9",
"NX c #E3B5D3",
"BX c #C88CE6",
"VX c #C798E7",
"CX c #D2ABE8",
"ZX c #D9B7E8",
"AX c #E1B3E9",
"SX c #BBC1C0",
"DX c #CFCECF",
"FX c #D8C6D9",
"GX c #E3D1D4",
"HX c #D3E2C9",
"JX c #DAC6E6",
"KX c #D8D8E3",
"LX c #E3CCE6",
"PX c #E5D8EB",
"IX c #E4CAF0",
/* pixels */
"f V -X$.{ r 7 % & w b I 8XVXW.k.B.G.4XqX}.( % b ;.+ # *.D X r =.u X a &.* o S M % J qXzX4XG.B.k.W.lXSXH.m ' & $ 5 y { o.-XV - d ",
"$ 6 >.a.1.O.#.A g v A F.SXZX$Xv.x.z ^.0X|.2.& u =.r X a [ @ ..p.o.+ u | X r >.] @ K ).0X( M.x.v.W.CXDXH.M m g b #.O.1.a.>.q & d ",
"$ > { y.d.p.u.8.:.x V F.dXJX`.x.b.j l &.7.&.o r u.O., < w 4 3.f.y.8 2 3 * o.u.| O K 7.5.l h b.x.R.MXjXH.P x :.8.a.p.d.u.| > $ l ",
"$ o 3 <.p.f.j.iXuX5XG.J.OXFX'.h A.B $ 8 %.#.@ [ p.i.D 4 q b s.w.s.F 6 4 A u.p.| o  .%.8 $ m A.h !.FX@XJ.K.5XuXiXh.f.g.1.r X % Z ",
";   , o.p.w.e.rXGXKXkX.XXXmX:Xd N ;.6 X y | 4 @.f.h.8.m e W iXr.iX;X9 m 8.h.f.%.+ | y X , ;.V d >XbXXX.XjXDXGXrXe.w.p.O.1   ; 2.",
"a X O } i.f._ ) zXAXPXZX=X*X3Xl 4 >.o.< X ' 4 :.h.0.pXQ V ,XmX/ vX7Xn I.pXr.h.:.4 ] + , X.>.8 ; <XzX=XmXPXAXzX)._ f.s.@.o   s a.",
"3.2   9 8.iXt.^ _.%XdXbXNX*X4Xt o O.i.=.8 6 b ;XeX) mXfXH.fXjXZ.#XkXH.5XNX~.rX>Xb 6 8 -.u.=.# ; 3X*XmXDXjX%X`.^ ` iXa.A X 1 -.) ",
"&.| + = :.uXbX~.m.E.N./.3X9X1XD o ..g.d.:.C n ;XCXN.%XZX.XnXOXv. XCX XMX@XN.nX5XM n :.p.g.O.o i 7.9X4X^.Y.E.m.!.vXaX:.= + | &.2.",
"o.| ' & P 8XLX&XC.c.k.z Z 2.6. .O @.f.q.aX,XU 5XCXC.V.zXxXzXG.b.F.vX*XvXZ.C.VXsXI U.uXt.f.$.O @.6.2.Z h x.x.C.%XGX8XT $ w | o.o.",
"3 ' { w g ,XKXVXW.x.b.j % % } ..4 S h.) wXJX[.+XkXn.k.Q zX1Xk A.k 1XwX/.z.n.dXsX[.FXzX0.h.J * | | ; $ j b.x.W.BXKX5Xk q { { 1 # ",
"    6 ' M F.kXJX`.k.A.S.6 X X w w C uX)._.cXCX*X6Xk A.g 7.5.; S * ( <Xl B l.6X*XnXVX_.).pXF 0 w o X 6 V A.k._.MXFXG.M ' 6 O     ",
"4 - d g S U oXJX6Xx f -X$.u 4 @ q C kXhXB.Z.6XzX1Xg T # G G < =.1 p G * M g :XqX6XR.B.@XkXP w & , r $.-Xg h ].LX+XI F g f = 4 , ",
"$.*.T H.F.F.T.BXeXY & i a.1.3.T n P sXVXv.k.L <X5.* O.[ < 0 y u.a 0 1 u =.# ( <XY z.v.hXkXP C T 2.1.a.| % L eXcX`.J.N.H.W ;.$.X.",
"y.tXtXuXfX+X.X=XbX5.; , <.g.g.yX,XJ.{.kXM.A.g t *., <.i.9 6 &.h.2.6 9 3.y.< #.D = A.M.6X+XJ.,XyXh.g.1.1 @ 5.eX=X.XoX7X8XtXs.u.u.",
"f.h.pXHXPXPXAX*X|.3Xt O | f.e.rXJXnX@XzXC m @.o u 7 4.t.:.C 7X9X4XM Q h.4.9 y + u V l wX%XcXJXeX0.f.o.o t 7.*X*XAXIXIXGXaXiXg.g.",
"w.e.9XBXVXnXbXpX0X).%.# 9 s.r.!.&XvXmXqXH 7 y.} 5 i 4X).kXI.gX`.jXL.kX).0XA 6 a y.0 A qXmXvX#X!.r.s.A + #.:X0XpXeXnXAXBX9X0.w.f.",
"w.0.^ !.$XZ.!.Q 2.2.%.w - 2XbX_.B.N.5.<XK < i.h.:.P gXR.hXhXsXB.+XdXhXR.jXT R s.i.7 G 1X>XN.V.Z.vX2X- w %.2.:.E !.Y.Q. X^ _ w.g.",
"iX9X~.c B.v.h d % 4 y { 6 U DX%Xv.l.d i  .7 8.r.vX'.jXV.F.wXI.k P.zXJ.B.fX[.vXr.9.7 } p = k c.%XFXP.5 { r 4 ; d h B.B.c !.9XiXa.",
"yXpXcXQ.B.b.l.f + X O * e P fXkXM.A.e + 6 e >X~..XcXdXL j ( A A C 5.m B }.cXOX'.1Xe 6 o e A.k.6XkXP q 4 O X o f l.b.c.W.xXpXyX>.",
"2XpXIX&XE.n.S.S.} ] D F L U `.bXY g =.=.S m ,X+Xk./.:Xt } y y <.y 1 a t 7./.n.oX5Xb A O.=.b Y bX[.F.L P D [ { ;.D.x.C.%XZXHX>XC ",
"L 5XKXMX_.h j T a.u.u.yXuXgX@X*X<X* o.f.iX5X[.}.B v a y i.p D 9.G i y.p a v k {.oX5X0Xf.O.@ 6.*X%XgX8XyXi.p.a.;.f h _.nXPX7XL = ",
"g F.fXPXeXY = < o.p.q.t.mXZXFXqX<Xt y 9.).cXcX1X9 ..7 S <X5X,X}.].,X9XG 0 X.e ).cXnX1X9.p 7 <XwXMXZXmXt.q.p.O.< % Y 6XLXjXG.g q ",
"M T Y.*XGX<Xl X 2 y.q.` !.W.N.R K  .5 2XoXV.P.5.t 4.6.U.{.oXdXY.+X+X[.U.6.4.t 5.! V._.8X9 [ &.R G.W._.) q.y.p O : >XDXBXY.U +.+.",
"x F.T..X=XeX2.5 O D yXwXZ.c.l.& o , e U.jXM.g 5 e 6.6XdXT.I ( n ( U J.hX}.<X0 7 m z.dX(.9 , @ = k x.Z.qXiX@.O * 2.eX*XXXT.F.x g ",
"U.5X&X#X*X|.1X%.< & :.FX&Xn.A.;.| G W J.dXY @.3.F ].Y.I.H a i ..i a H P.Z.{.F %. .L zXT.T G | @.A.n.&XFX>X- , $.7.|.*X=X#X5X(.I.",
"HXKXPXPXpX4X6.%.| w L 5XFX!.g @.u.h.eXnXzX( y 4.6XdXW e y 8.Q 1XQ 8.p i T dX6X9.p K wXnXbXh.u.$.g H.FX6Xn q { %.8.3XpXFXPXKXHXuX",
"NXCXjX].^.Z t < 4 q M H.dXeXZ # =.t.~.R.W G t >XY.P.H 2.:X[.}.T.{.'.^.3.D ! R.6Xe G R R._.t.3., C 0XhXJ.M e < < t Z ( ].xXCXFXpX",
"#X$X XM.d % . X * C H.T.@X*X6.7 9 4X+Xn.m 7 A (.T.A p ^.[.W F D H W '.(.p A J.(.A 7 m n.`.8Xt 7 5.*X@X`.F.P - o   $ d c Z.$X#X9X",
"~ m.v.x.j f 3 [ -.2XDXJXbX8X6.X.q W nXH.M y.4XdX:X .<X5XF G :.^.5.J F '.1X#.5.dX1Xi.S I nXI.7 | 5.9XbXJXDXtX>.[ 3 5 j z.B.m.~ ^ ",
"!.N.v.b.D.-X,.u.f.iXzX#X!.l * # 8 I }.6Xt 2.6XM.C S '.L K (./.W P.(.&.F T.J A M.}.2.7 1X+XU b # * C L.@XzXrXf.u.,.-XD.b.v.B.!.).",
"=X$XC.k.N M ,.p.q._ ~ C.n.j 0  .2XvXvX<Xa 9 6XF.X.:X].K /.R E ! E R (.K /.>X%.U 6XM a :XcXvX2XX.0 f z.B.~ _ q.p.,.@.N k.C.$XBXNX",
"IXCX[.c d + 3 O.d.rX}.E.b.V =.g.t.[.Z.g 1 R +X:Xa ].F Q ! Q ! Q ! Q Q ! F '.H 5.sXQ 7 - Y.[.r.p.a.V b.C..X0Xd.3.3 + d x _.cXGXHX",
"DXPXbX:XZ % X 5 :.uXJX#Xx = y y.0X`.n.M y.4X`.F D ].J ^.R ! Q ! Q ! E ^.J ].J A T.1Xi.S z.R.0Xy.u @ x +XZXuX>.9 X % C /.bXPXDX7X",
"`.hXNXNX9.&.7 + - W fXFX8XH @ 8 >XnX(.8  .1XY.A 7.J.J ^.Q ! Q Q Q Q Q P.E H.<XD G.6X*.8 I.nX7X9 @ Z 1XZXkXI.g O ,  .3XpXNXlX'.M.",
"U T.XX=X|.7.%.[ w b F.oX*X1X*.0 b '.xX5.t W }.J R (.J U.Q Q R R Q Q Q ! J /.R D 6XI.1 ( zX'.C q #.7.zXOXH.m w { %.7.qX*XXXR.U F ",
"G.`.&XzXqX8.X.w 6 m J.*XvX7.a < P 5XwXJ 7 U.6XH 5.I.K U.Q Q Q Q Q Q ! P.E I.( D 5X,X7 H 6XsXT 5 p 7.vX#XT.n 6 w ..6.9XzX=X XH.n ",
"5XCXLXpX5.A @ O n ;XDXMX/.C o p 4XcXG.v 3.1XM.A 8.'.H U.E ! Q Q ! ! ! U.J L.7.D V.1X3.b F.jX8XD # : ^.MXFX;XC O @ t 5.uXGXCXsXH.",
"KXIX8XP.l $ o p 8.aXCX Xk g  .u.r.Y.x.V =.3X+XR A ].J ^.R ! Q Q R ! R ^.J ].S F +X4X<.M n.N.r.p.X.- h  XCXpX8.a # . l !.8XIXKX8X",
"AXlX_.m.f * [ 1.g.9X!.B.b.S.-.u.h.cX'.C 7 C {.^.#.].U K P.E ^.! U.E P.Q F '.#.( }.F 7 C '.dX0Xu.=.V b.B._.9Xf.y.[ , = h _.&XJXHX",
"&XQ.B.x.B ;.a.p.q.0.!.W.m.f + t E 5XdXqXG A 6XF.D :.].G ^.P.J E R ! ^.G (.:X@.I sXF a 1XjX6XQ i , f k.W.!.` w.p.a.;.A.x.B.Q.#XvX",
"~ m.x.b.D.V o.1.d.iXMXVX5XR t y 6 P +X1X8 3.1XR.H D ].W K ^./.I./.^.#.W '.G H T.).4.7 :X+XU 7 1 t R ].nXMXaXp.1.O.;.D.b.x.m.c ) ",
"!.Z.E.k.h & , 0 @.5.8XnXmXwX7. .9 U.nXF.A 3.<XsX/. .6.{.U D K :.J G U '.6. .^.sX>X3.@.M.jX,X9 } 6.wXmXnX8X;X*.y , + f k.E.Z.~ / ",
"xX&X XG.x % O   & g L G.XX*X5.# A 4X_.c.g , 9 ;XT.m i 6.}.L.R F W I.6X:Xy C K.5X9 < f n._.8XD # 2.zXXXY.I g &   X % x N..X&XzXrX",
"GXIXmX6X:X:.#.u w ' m J.nX8X: < y.q.}.+X:X5.e <X`.].J %.J 5X}.[.{.].R %.H ].`.1Xi &.:X+X}.e.u.6 ; 1XnXT.M ' ' u D &.6.6XnXIXPXpX",
"uXDXLXLXeX0X<X2.{ 5 L 8XmXY.j @.u.s.8XfXxX( y i.1XsXH.b p 2.S 6.D 2.p t F.6X6Xi.a J zXfX8Xs.u.$.j G.nXkXU 4 ] %.7.0XeXLXLXDXSX2X",
"J._..X%X=X|.7. .o g 2XDX%Xv.A.M 2 9 A H.jXI S a 9 ,XR.].E A p a p i W ].R.5Xb p S L gXJ.C 9 r M A.v. XFX2Xv + a 7.|.=X%X.X_.K.U ",
"n U T..XBX0X&.@ + $.h.qXN.c.k.; * 1 q ,XhXn.g i y 6.6XsX`.G.,XL /.L.T.sX6X7.i t g n.+X5X9 0 * = k.B.N.).iX%.# @ K 0XzXXXT.U n g ",
"M L _.nXGX^.l O u y.q.` ~.OX(.<X5. .6 4X~.Z.].1Xy 4.&.T 6X+XsXR.dX+X}.U.J y.y 6.5XR.~.4X9 } 5.6./.oX.X` q.u.[ O ; ( DXCX[.U +.' ",
"g J.kXPX6Xx % 6 =.p.f.rXGXJXmXzX1X7 i q.9XMXhX}.b } < p 9.5.U.qXU.:.t.D 1 p b ].hXnX9Xq.a 7 7.zXmXJXFXiXf.g.3.q f x 6XGXnXK.g v ",
"I.7XPXnXZ.k.N -X>.y.y.a.7X]..XxX:X@ O.i.2XU.[.sXz.n K y 3.y p i.D 0 3.y &.C l.[.{.I.2Xg.<.# ( zX.X{.7X3Xa.1.,.;.B h Z.xXPXuXU g ",
"8.HXZX%XE.x.D.V w 2 9 g C P [.bXI m -.| 5 9 ,XOXV.].1XC i i y $.y p A b :X6XV.oX5Xb 5 } -.m x bX{.U n v 9 2 2 V D.b.E.$XAXHX2XF ",
"yXpX#XW.c.x.l.d O   X 6 q L kXhXn.A.8 @ 2 q 3X).hXxXqXA.k :XH m Z :Xn z.6XxXhX).3Xe 3 # - A.n.+XkXU q 6 X   O d z.x.k.C.#XrXyX>.",
"j.r.^ c C.B.z l : t } { 5 W DX$Xv.z.g &.#.< 9.t.8XL.hXC.T.cX].l./.zX[.V.hXL.8Xt.4.7 G &.l z.c. XFX;X8 ] | i : l z C.E.c ^ r.h.s.",
"w.0.) XX%X`./.6.9.8.2.2 - 2XeX!.Z._.1X1XJ , u.i.F C 8X_.jX+XhXZ.#X+XjX`.gXF A 9.u.2 D 9X1X'.Z.N.eX4X8 < %.6.8.7./.[.$XXX) _ w.g.",
"w.e.rXNXAXJXGXGXqX1X .X i s.0.~.VXZXxXqXZ 7 =.y 6 9 3Xr.8XU kX~.kXU 7X9X3XA < 7 =.i C qXxXJXBX).0.s.D o } <XqXNXGXJXZXZXrXe.w.f.",
"g.j.aXHXKXZXBX=X|.7.t o ..f.w.pXDXsXXXvXx V 9 # } 6 4.h.T 9 2Xr.3Xb S h.i.6 [ , 9 V x 6XXX+XDXpXe.f.o.o ; 8.|.=XBXZXKXHXaXiXg.g.",
"a.a.2X2X'.`.`.&XbX5.= < 1.p.p.2XI.U {.kXV.l.g H &., 1.3.5 6 #.f.*.6 < <.<., 2.K d l.z.gXsXF.I.2Xs.p.y.6 $ ( pX=X.X_.[.7X2Xa.a.1.",
"p S P x x H.`.CX8Xc = M a.<.$.C b P fXjXB.n.P.9X6.* $.y 7 u 2 y.u y 7 1 $.4 ( qX^.k.B.hXkXP m v $.1.,.@.% l 8XZX`.H.L x P S D u ",
"& & $ v +.I +XJX1Xz j -X@.2 + + w n 8X@XV. XvXxX1Xg V * K K , -.4 K 2.; V g :X*XeX.Xm.@XuXL w 4 O < } -Xj h ].FXfXF.M b $ & & + ",
"  + ' ' m J.DXZXR.n.D.B + . # { q C iX).~.ZXjX#X6Xz.l.l 1X7.g V - ( 1XL l.z.1X#XcXAXXX).pXF 6 { , X + B D.n.R.CXFXL.m ' ' >     ",
"] { { q g 5XKXBXW.x.b.h % t *.$.# D h.0.eXSXT.{.nXC.n./.zXwXx l.x qXzX5Xz.B.dXsXT.kXpX` h.#.#  .%.t % h b.x.E.&XKX7Xk 5 ' { ] 1 ",
"$.| 3 & T yXFX&XB.c.k.x R 6.7. .O | f.h.yXU.P 5XCXC.W.mX#XnXT.x.G.vX#XnX XC.VX5Xn I.yXh.f.o.O a 6.8.E c B.B.m.%XNXuXR & 3 | %.=.",
"*.| O - :.aXrX!.N.W.`.1X0XqX1Xi o o.p.i.:.v b ,XnX!.hXCX`.kX@XB.OXnX`.nXlX!.nX7Xb v T u.p.O.# t <XqX0X7X_.W.m.!.qXaX5.v X [ %.( ",
"=., . i 9.iX` ^ .X%XzXGXNX*X4X: > =.u.X.* 6 9 ;X0X) bX7XU fXVXZ.lXkXF.5XbX) 0X>X9 q 4 X.y.3.# : 9.*XzXGXvX#X.X^ 0.j.a.A . # =.7."
};
