/* XPM */
static char *_615362223301[] = {
/* columns rows colors chars-per-pixel */
"64 64 253 2 ",
"   c #050605",
".  c #36381B",
"X  c #182F3D",
"o  c #1C313A",
"O  c #293326",
"+  c #313927",
"@  c #263839",
"#  c #374736",
"$  c #47481C",
"%  c #57561D",
"&  c #716D1D",
"*  c #4D562F",
"=  c #5A6331",
"-  c #6B712F",
";  c #777625",
":  c #1B3848",
">  c #1A3B52",
",  c #263F46",
"<  c #1B425E",
"1  c #314E50",
"2  c #1B4869",
"3  c #1E5176",
"4  c #2E566B",
"5  c #365C65",
"6  c #275676",
"7  c #3D6973",
"8  c #386579",
"9  c #495B50",
"0  c #566947",
"q  c #536B4F",
"w  c #496658",
"e  c #5B7559",
"r  c #697946",
"t  c #667C53",
"y  c #476C69",
"u  c #557668",
"i  c #4C7375",
"p  c #686869",
"a  c #7B8339",
"s  c #788545",
"d  c #778B57",
"f  c #738A5B",
"g  c #67866A",
"h  c #738D68",
"j  c #79946A",
"k  c #7D9A6D",
"l  c #688A75",
"z  c #6C907A",
"x  c #6E917A",
"c  c #749373",
"v  c #7D9B73",
"b  c #769678",
"n  c #7C9C7B",
"m  c #8B8828",
"M  c #999529",
"N  c #8C8E32",
"B  c #999B3A",
"V  c #A39D28",
"C  c #9FA135",
"Z  c #B0AB2E",
"A  c #BCB52B",
"S  c #A8A739",
"D  c #B9B437",
"F  c #C4BD32",
"G  c #D1C82E",
"H  c #CBC438",
"J  c #D3CB38",
"K  c #DBD336",
"L  c #E5DB36",
"P  c #EBE338",
"I  c #F5EB3A",
"U  c #FCF137",
"Y  c #FDF33B",
"T  c #8A9548",
"R  c #8A954B",
"E  c #949B47",
"W  c #889958",
"Q  c #99A450",
"!  c #98A65A",
"~  c #A6A945",
"^  c #A9B359",
"/  c #B0B551",
"(  c #869C64",
")  c #839D6C",
"_  c #829E73",
"`  c #839E78",
"'  c #8CA367",
"]  c #86A16D",
"[  c #8BA46B",
"{  c #92A563",
"}  c #93AA6D",
"|  c #98AB68",
" . c #9DB168",
".. c #85A274",
"X. c #89A574",
"o. c #8EA974",
"O. c #84A37A",
"+. c #8AA67A",
"@. c #8CAA7B",
"#. c #92AB73",
"$. c #97AC74",
"%. c #93AE7B",
"&. c #8FB07F",
"*. c #99B278",
"=. c #9BB47B",
"-. c #A8B966",
";. c #B1BC63",
":. c #A5BB79",
">. c #C1BE43",
",. c #BFC349",
"<. c #BAC45C",
"1. c #B9C568",
"2. c #ACC278",
"3. c #B5C776",
"4. c #C9C548",
"5. c #D5D14C",
"6. c #CACB58",
"7. c #D9D757",
"8. c #E2DB4E",
"9. c #DFE05F",
"0. c #F5EC46",
"q. c #FBF245",
"w. c #FCF34B",
"e. c #EDE651",
"r. c #FBF357",
"t. c #C4CA64",
"y. c #D5D969",
"u. c #C6D171",
"i. c #CAD676",
"p. c #D3DD79",
"a. c #DDE268",
"s. c #DAE37B",
"d. c #E8E766",
"f. c #F1EF6D",
"g. c #F9F469",
"h. c #E6EB79",
"j. c #F9F578",
"k. c #1E5985",
"l. c #245D88",
"z. c #2F688E",
"x. c #396B86",
"c. c #276896",
"v. c #3B759A",
"b. c #2B73A9",
"n. c #2C76AC",
"m. c #3778A6",
"M. c #4C7688",
"N. c #457A97",
"B. c #597D96",
"V. c #2F80BC",
"C. c #3783BA",
"Z. c #538491",
"A. c #5A8B97",
"S. c #678A8A",
"D. c #6C9587",
"F. c #7B9E83",
"G. c #749B88",
"H. c #679597",
"J. c #759A97",
"K. c #7CA288",
"L. c #79A499",
"P. c #568CA5",
"I. c #548FAF",
"U. c #488AB6",
"Y. c #689CA7",
"T. c #6594AB",
"R. c #6CA1AF",
"E. c #77A6A6",
"W. c #74A8B4",
"Q. c #3889C5",
"!. c #3C94D2",
"~. c #4A94C9",
"^. c #569CC8",
"/. c #479CD8",
"(. c #56A4D7",
"). c #66A6C9",
"_. c #79B4C8",
"`. c #71B2D3",
"'. c #4BA3E1",
"]. c #57ABE6",
"[. c #61AFE3",
"{. c #68B5E8",
"}. c #74BBE8",
"|. c #7DC1E8",
" X c #8C9691",
".X c #83A484",
"XX c #8BAB83",
"oX c #87A88A",
"OX c #93AC83",
"+X c #96AC89",
"@X c #91AE8F",
"#X c #98B587",
"$X c #86AA96",
"%X c #8CB297",
"&X c #99B895",
"*X c #A4BB86",
"=X c #ACBA93",
"-X c #8A9AA3",
";X c #88B4A7",
":X c #8CB5AC",
">X c #ACB5AB",
",X c #C1BFBF",
"<X c #9EC19C",
"1X c #A9C388",
"2X c #B6CB8B",
"3X c #BBD28D",
"4X c #A7C697",
"5X c #B8CB96",
"6X c #BCD595",
"7X c #9AC4AA",
"8X c #99C5B5",
"9X c #A6CAA7",
"0X c #B7D7A9",
"qX c #AFCEB0",
"wX c #B9DBB7",
"eX c #CFD78C",
"rX c #C6D98A",
"tX c #C6D897",
"yX c #D9E687",
"uX c #CEE39B",
"iX c #D7E798",
"pX c #E4EB87",
"aX c #F7F588",
"sX c #E5EC95",
"dX c #ECF19B",
"fX c #F2F391",
"gX c #C6D8A5",
"hX c #C9D5AC",
"jX c #D1E6A9",
"kX c #C8E2B7",
"lX c #D6E8B8",
"zX c #E6EDA9",
"xX c #EFF3AD",
"cX c #84BCCB",
"vX c #BDBDC0",
"bX c #96C8C7",
"nX c #93C7CA",
"mX c #86C3DB",
"MX c #98CCD9",
"NX c #A4CFC3",
"BX c #A9D4C7",
"VX c #B9DDC8",
"CX c #A9D5D9",
"ZX c #B7DAD6",
"AX c #89C6E8",
"SX c #9ACEE4",
"DX c #A2D2E3",
"FX c #D2D7CF",
"GX c #C9E2C8",
"HX c #CCE4CF",
"JX c #F1F0D4",
"KX c #F6F6E7",
"LX c #FCFDF9",
/* pixels */
"y r ~ t.rX9XW.P.x.7 y q r 0 0 5 4 c.~.`.GXj.0.m o C.AXaXP % k.{.dXP $ c.AXj.A 1 (.iXK 1 ^.pXU F 5 cX5.w W.7.y 8X~ N.rXs R.j.JXqX",
"t.3X;XH.i f T ~ <.u.i.p.p.s.a.5.F N * 2 C.mXsXq.m : /.ZXr.Z X /.HXw.m < ].zXI $ b.SXg.m l.nXg.I m v.0XD M.0X~ Z.rXs R.6.i 9XaXLX",
"A.u d / 1.3X9XE.Y.P.Z.v.C.U.).bXkXj.P M @ V.AXaXL . n.SXj.A : !.HXq.; < ].lXY % k.}.j.G @ /.jXY L 9 ).pX- I.s.r W.6.i 9XB P.pXJX",
"/ 3.<XE.Z.y f T C S S S M - # 3 !.AXdXY & 2 [.xXL # Q.VX0.& l.AXaXH # C.DXg.G + C.AXj.K O Q.HXw.U m z.BXJ 5 bX6.7 0XB P.y.u 9Xg.",
"E.M.f T ,.i.rX0XqXwXwXjXh.r.L & : !.CXg.M 2 }.j.M 4 mXf.m 8 _.pXD 1 U.BXf.D * c.}.lXq.m : !.HXw.U F < }.f.; U.yXa I.y.e 8XS P.s.",
"E 6.3X7XT.Z.x.8 6 6 l.C.[.ZXj.P $ c.SXr.& m.wXH w W.p.s N.7Xt.s M.:XrX/ s 8 ^.NXyXJ a # C.|.zXY U A o '.dXZ 6 VX4.8 qXC P.p.u 8X",
":XT.i e T S H 4.J F m + l.'.HXw.& b.VXH 5 nX6.u :X1.g L.2.W z %X2.! g D.%X2X<.Q s 7 v.`.BXfXq.Y U & > ].zXG 1 `.f.= ).7.y qXN I.",
"f B 6.s.0XwXBXBXkXfXw.H . n.CX0.= ^.s.r E.1.g %X} z #X{ n XX*.) n XX%.} ) c K.oX4XrXs.d.I P K A & : Q.AXaXG @ (.fXm U.iX- W.6.8 ",
"eX>XT.v.x.l.6 z.!.}.lXw.& c.GX>.8 0XE H.2.g #X] .X} b XX! c K.$.' b K.*.-.;.^ ^ Q ! W d f e y 8 C.(.MXdXY M < ].dXV l.wXZ v.yX- ",
"N.i B.>X>X>X>Xp : n.SXg.; m.iXr E.^ D.*.c *.b XX! c K.[ k ..O._ ] n v ] h ` %X#Xo.+.&.=.#X*X2X6Xs.s.d.L M O c.}.aXZ 4 MX5.7 wXM ",
"FXJXLXKXLXLXLXLX X< }.f.= W.<.S.2.z *.b *.k n v k ] o.XXG.h -.%Xz ! #Xz ] .XX.OXX.n .X+...n b g f e q 5 4 n.].HXw.M 3 MXe.1 nX5.",
"xXfXg.r.w.g.xXLXFX, `.7.i 5Xf #Xk #.c K.k k '  .1XY.w H wXv.m sX~.= d.`.w t.$Xj #X+X:.] j X.$.%.*.&X7X8XbXVXzXg.L $ c.CXe.9 _.e.",
"h.zXhXGXzXf.0.xXKX5 8X~ H.-.K.) oX' v ] *.&XY.9 J qX8 <.;Xt ;.%Xg ^ =XA.r e.nX6 / ;X X=X) OX%.@.n j d Q ~ D F V $ < /.GXP # `.f.",
"^.m.b.Q.].CXg.j.FXM.9Xf &Xv | z ..n K.D.r 5.NXi 1.H.[ XX_ $..X` o.O._ } @.$Xl R y.qXx.,XrX_ ) j ..%.#X%XH.M.8 6 m./.SXaXG 1 `.f.",
"* - % + 2 '.lXg.FXB.2.G.} oX' ..] ! u.BX8 / K.[ .X[ X...X.` X.` ..O.O.` .X.X+X XE.H.B.JXdX1X_ +.K.XXv k  .3.0XwXVXlXj.I ; 6 AXr.",
"r.r.q.K % l.NXj.>XJ.| XXc n v K.E.8 M 4Xc XX..X.........X.) ` ` @X&X=XqX5XgXtXgXtXjXxXdXg.hXZ.} ..' ( %..Xl d B D G G ; o Q.ZXw.",
"MXMXGXg.H 1 cXj.$X@X.. .v *.t.e.pXI.Q K.o.v @.........X....X&XqX6X1X=.&.X.@.o.o.X.X.@.@.K.Y.5 / oX[ n K._  .&XY.M.1 1 2 Q.}.dXK ",
"l.b.'.VXe.0 :XaXY.#.G.#. .W a K d.G.&.X.v o.......O._ +. XgXtX@.o.v ] v v o.v v v X.v o.[ { / s._.j @.o.:.oXj -.3XNXmX|.SXzXq.m ",
"; # < [.pXr :XyXL.' v } XX:Xm.Z 3.v @.o.o.n X.+.X.` %.-XhXtXh :.c  .n X.&.X.X.X.X.v o.v X.v K.H.x.a #Xv $.rX6XG.t ~ 7.g.r.0.Z O ",
"w.L % v.gXT %XtXK. .} [ S d.R./ &.@.X.v ..X.o.v OX' L.-XfX;XT ;XT ;Xd 1Xl  .&.n v X.v X.n +.o.} ^ 7.9Xv +.v oXyX9XA.w = ; % O c.",
"GXaXH 1 qXR &X=XK. .n Y.8 ~ n <.+.......X.n &.( &XW &XJ.tXtXO.%.v XX{ L.^ L.d ,.<.<.-.} v v ....K.L.U.s #Xo.XXL.eXpX9X^.n.n.!.[.",
"!.MXf.r :XW 4X*Xk n 2.pXW.k } 2.v ....@.&.j 1Xg :.F.) @..XOX#X%.@.....O.o.n J 6XF.[ }  .<. .[ ..@.[ s >.<Xk  .} J.=XaXh.jXBXZXzX",
": Q.kXB J.{ 5X:.v } 0 C 4Xk  .} @.X.o.O. .S.! @Xc ) _ ) j ) ) ] ..X.n ) v n <.K.Q %Xn n ..#.-. ...n #XqXR.j | j X.J.-XxXj.w.w.q.",
"M 1 cX,.H.| +X#.v L.).g =...1.o.X.X.[ %Xd 1Xn v _ v ) ` -.) ....O.n ....X.n [ } #Xg 1.&.+..... .^ o.] g 5 / } @.G.| $XS.FXKXxXxX",
"r.m N.u.b $.F...XX6.s.D.#.v <.X.X.o.b 3.L.k .._ v _ O...} | ' ] ) v v 2X&X+.`  .O. .L.h ] ] X...o.<.[ :.7.rXn  .| .X| ;XM. XFXLX",
"GX5.y 4Xc | b @.h 5 E XXX.X.1.n +.] %Xg ' .._ v .._ ] k c j ) ) ' ] v +.&X` X.) X.@.k 1XK.+.O...v @.<.[ Y.^.f :.j [ z ^ >Xv.4 w ",
"^.iXT $X) *.k v :XnXl %.X.X.1.n [ z ! =..._ v ....v k k j ) _ _ ..} [ v OXOX` ` ..O.@.c ! } ....n X.+.1.S = D 2._ D.*.S./ hX).C.",
"< _.;.S.#.oX..=./ 7.K.} n v <.o.v 1XL.v ..v _ ..v v v n _ _ _ _ v ' | .._ +XX...v v ..*.L.b O.X.X.X.o.n p.I 0.#X` :.) *Xi S h.FX",
"V M.3Xc $.b +.j 8 e =.+...O.<.X.oXh ' X.X.k .._ _ OX*X+Xv c c ` ` j _ j _ OX` ) n ] ..n { 2.} n X.X.v o.D.6XiXG.X.W XX( 9XM.m L ",
"d.s E.{ %.j ) L.0XY.[ O.O.X. .=.' 1X&.o.} X.O.O.OX+.X.` j c ` ) ) ) ) _ _ *XX._ @.v ] X.K.l n o.n X.n @.[ l m.d +.G.' G./ 8Xc.# ",
"nXt.l =.K.*.n yXg.rXO.o.X.+.] 6.G.g @. .X.n @.+X_ _ _ ) ) j 0 # 0 h ) ) XX=X` _ ..v v n } 1X:.k X.X.o.X..X;.m 3.n %.n :.u 6.BX~.",
"z.qXQ oXk .X=.xXKXxX#X] ..O.O.! a.i.<.v X.oX#X@._ ) v ) j 9       q c c j ` _ _ ......o.n f c XXn X.o.n [ E.iX$X..( %.' ;Xt 8.lX",
"; Z.2Xc } j rX X7 hXeX..X.X.` .XW E _ .._ 5X*Xv [  ._ j ( 9       9 ` j ` _ ) v _ _ _ ..%.@X#X_ +.+.....&.d m.g #.b } z 1.P.- J ",
"I a J.| XX} =XP._.T.hX1X` X.X.[ #X%X#.` v +.X.v | ) _ +._ h +   + d ` ` ) ` ` v #.X._ _ v ! h @.X.X...+.n 3.V -.O.oXv @XW 0Xm.# ",
"f.P g #X_ +X@X4X7.=X-XgX+.X.` @.j h F.X._ _ X.] ' _ ` j v ` v g j ) ` ` _ _ v )  .} _ ` .XE.*X) X.X.X.O.' E.jX$X..} O.:.Z.4.BXQ.",
"mXyXJ l $.v &X! 9 R OX>X2X_ +.) =.*X ._ X._ O.] [ _ _ ) c v j ) _ j ) ) _ _ [ [ X.) _ @X>X>XJ.o.O.O.+...=.e z.j O.( XX{ ;Xr d.GX",
"4 R.iX~ K.! @Xh ).:Xz oXqX*X_ X.n c D.$.o.o._ ..} v _ ] n v _ _ k v  .' ( ( ] X.+._ *X5XtXfX>X+.X.+.O.X.K.6.S =.O.D.=.c 3Xv.M 0.",
"F = P.s.Q @X#XF.y.4.*X` oXgX+X) X.=.-.c %.OX_ ..} [ v v ..XX*X.._ _ ] ] ) ) n ..) OX%.( g 4XhX.XX...X.%.l bX7Xn X.XX} S.4._.4 & ",
"jXa.N H.i.( +X@.E 5 g } _ oXgX*XO.O.D.*X' =Xv ] ^ #._ v v v #X&.X.X.....X._ .._ o.X.v L.:.` jX XX...+.XXE 4 g o.( =.( $Xm iX~.3 ",
"C.`.tXQ G.1.f +.l cX9XF..... X5X2XX.} d J.tX.X..v _ ....v v k n +.XX+X+X5XOXv _ n O.:.W oXo.gXoXX...o.G.s.4.=.O.D.=.k 4Xy 7.GX{.",
"= 1 v.9X! K.-.] n i.S ! %......X>XtX5X=XiXjX X_ v v v n o.v n X._ _ O.+.XX] v ..@.' S.=.v %.hX.XX.X.%.g _.;Xn X.G.:.l rXN.m e.dX",
"w.P B u $X .n .XO.! 8 P.b X.X...` oX&XhXhX-XJ.[ @.v v k k v v X._ ) ) X.] k n } h <XW &._ *X>XO...] @XB w j ..! .X-.S.6.`.1 M L ",
"CXCXuX7.d D.*.z ..) E.yX3.@.O..._ ....O.F..X3.g #Xv X.v X.k v v _ ] #.} *.<.d L.^ G.#.o...5X&X..O.' R.pX1.@.F.k .X-.A.~ kXQ.: + ",
"n.c.m.).6X^ z *.| ..&XS w h X...O..._ ..+.X.v $X^ S.2.n o.&.v o.n #.b =.j <XP g =.n ..+.+.gXoXo.K.^ 7 T.F....X_ K.-.R.; f.MX'.C.",
"$ ; ; - i E.:.k K.O.@.f ).qX#X+........._ X.X.) b #X! E.^ L. .L.! L.Q L.! L.5.n o.@.X...1X>XO.$.H.y.B W X.( =.{ J./ cX1 K j.GXGX",
"P r.g.d.4.T l oXo.c _ _ &XH s ) ] ......X.X.X.X.#.k n *.g #XW %X! $X{ oX] 1.! +...X...@.gX@Xn -.M.bX&X+.K.j XX .H.S wXc.% K 0.0.",
"f.HXAX}.mX0X3.! b @.| O.XXT m.:X#X@.X...+...X._ v o.X.v @.k n } n o.` ..2.! +.........6X>X#.J.7.- g ] X.oX_ K.;.P.B iX(.3 O % * ",
"ZX'.c.< 1 4 N.;X*X[ n K.O.] E.a.N h c _ _ _ ..X.v X.X.o.v X.o.v _ ..$.1.| ..........1XhXL.T U.0X2.@.n Q XX-.S.t.I.- g.ZX].Q.n.~.",
"{.l.. V G H S N g G.&.X.( [ n -.7 _.2X-.[ X.........X...v X.X.v #.-.-.[ ..v X...` $.zXT.9XD w z K.OXn <.z 2Xi 7.).# K g.zXGXkXiX",
"!.@ H w.dXGXwX0XrX-.] v +.XX.X@.c 9XA w H.oX*.o.] ....v X.} -.-. .} v ..O.o...'  XfXFX6 cX3X=.OX%.&X! 2Xf 9Xw a.mXk.% H L L H B ",
"m.% q.lX}.!.c.l.v.A.L.#X*.O.b ) X..X! N.jX4.t S.oX:.1.<.<.} } o.v o.X.X.} K.-.Z.rXaXJX XG.@X#X.X{ n 4.L.~ 8X1 e.VX/.3 o # 1 5 v.",
"c.m j.AXn.o & V Z S E d l n +.#.@.O.+.v &XE v.wXw.L s D.#X .j K. .c @XQ Z.tXN m.wXp.uXeX*X$.#Xv XXW p.M.5._.1 G aXZX{.(.^.`.bXuX",
"c.M aX].> m Y j.lXwXqX0X2X2.*.o.O.n j ] _ $.c &X0.C c.wXJ 5 _.9.0 ).h.; C.0X4.f z ` _ O.c ' K.*.z 5.8Xw e.AX3 & P r.aXsXh.d.F m ",
"m.N sX/.# L aXSX'.c.6 5 y u l b F.O.o.+.G.b ) ..&.<.d %X<.g W.i.s A.&X-.d G.K.o.` j } K.[ K.! L.B g.R.* r.CXQ.: % M V M a 0 M.I.",
"U.a pX~.$ 0.HX'.< % Z K e.y.i.1X:.:.$.%.X.[ $.oXn v  .| o.} k v %.] v n O.v ( XXD.' K.' $XW <Xu L pX~.* L dXAX!.n.l.l.v.I.:X6Xy.",
"_.e d.).* e.CXn.. K g.kXAX^.U.M.i l l j ) _ ) _ v ' &.K.c W  .&.b o.-.&.G.( %.b } K.! %Xe u.P.N U jX/.o Z q.aXlXwXVXkXiXs./ s i ",
"kX8 4.nX1 8.CXl.& q.HX[.c.@ ; A 5.u.rX4X&X$X.XF.v ) [ X.o..XJ.oX*XeX#Xv %.K.j 2.D.Q 9Xi 4.bX1 H Y zX{.c.O a A J H D B a y Z.E.6X",
"a.I.N kXx.A kXb.; r.DXV.O A w.zXMX).v.5 r E ^ :.=X$XJ.J.-X=XyXtX%Xc ! &XD.E 4XZ.E 0Xv.N sX^.# L U r.HX{.C.l.6 4 8 x.P.W.9Xs.r.P ",
"D 8Xq a.I.a yX~.= r.DXl.% I zX}.n.@ m 5.h.wX_.B.M.-X>XdXj.iXE.l T i.W.u / 0XN.N h.).1 K kX/.O H Y U r.pXkXwXwX8X0XuXh.w.P F T g ",
"0 p.P.S 8Xy 5.nX5 K VXb.- r.HX!.o M q.zX}.m.1 -XJXxXg.pXnXN.0 4.gXI.q 4.jXU.* e.VXn.% I GX].2 % G U Y Y Y Y q.Y U P H B g l Y.4X",
"v.~ 8Xw p.I.N iXv.N sX~.* P GXQ.. K aXAXn.o ,XLXxXw.zX}.l.& 8.lX~.1 F fX[.2 V g.AXn.. P j.CX/.l.1 - N Z S S C a f u Z.Y.<X3.<.s ",
"8Xe i.P.B qX7 6.nXw 8.bX6 Z dX'.@ F aX}.l.p LXKXr.g.DXn.+ K aX}.k.& Y GX/.o A r.ZX!.> ; P g.lXnX).C.v.v.Z.Z.P.W.%X6X1.^ s g A.E.",
"s.P.E 9Xi 6.R.s p.I.a s.^.= e.MXl.m g.SXc.9 LXLXr.j.AXb.$ P xX{.3 & Y lX].2 & P fXMX!.4 # N H 5.a.s.yXs.i.i.<.^ R f l A.E.3X1.~ ",
"D 0Xy 6.R.s rXv.C 0Xx.D wXz.M pX~.9 K lX~.1 FXLXj.r.CXQ.O G j.AXn.O K j.DX!.: ; P f.kX|.~.c.4 5 0 - r 0 e y 8 Z.I.7XrXa.S a 7 U."
};
