/* XPM */
static char *_615362195676[] = {
/* columns rows colors chars-per-pixel */
"64 64 255 2 ",
"   c #190A1C",
".  c #0A131F",
"X  c #11101E",
"o  c #26071C",
"O  c #0C1522",
"+  c #051B25",
"@  c #0B1B25",
"#  c #061C28",
"$  c #0A1E29",
"%  c #171727",
"&  c #1A1427",
"*  c #270C23",
"=  c #370A27",
"-  c #25172C",
";  c #34122D",
":  c #291C36",
">  c #381937",
",  c #05212D",
"<  c #0C212C",
"1  c #13232E",
"2  c #1A232F",
"3  c #0C2533",
"4  c #0B293A",
"5  c #142531",
"6  c #1C2432",
"7  c #152934",
"8  c #182B38",
"9  c #1E313B",
"0  c #262538",
"q  c #242C3C",
"w  c #35233C",
"e  c #23333D",
"r  c #430A2A",
"t  c #4E0C30",
"y  c #560E35",
"u  c #461638",
"i  c #59143B",
"p  c #65103C",
"a  c #44223E",
"s  c #3F1F44",
"d  c #0D2E42",
"f  c #182E44",
"g  c #0E3349",
"h  c #153449",
"j  c #0F3952",
"k  c #173B56",
"l  c #2B2C45",
"z  c #382945",
"x  c #293645",
"c  c #34384A",
"v  c #3B2D54",
"b  c #293A56",
"n  c #363858",
"m  c #2F3C62",
"M  c #383B63",
"N  c #511D45",
"B  c #671843",
"V  c #77184A",
"C  c #761F52",
"Z  c #48284A",
"A  c #56254B",
"S  c #47344D",
"D  c #482B54",
"F  c #592955",
"G  c #473757",
"H  c #563956",
"J  c #682857",
"K  c #772556",
"L  c #6B3056",
"P  c #4B3A66",
"I  c #583864",
"U  c #673A68",
"Y  c #743064",
"T  c #763768",
"R  c #17415D",
"E  c #34434C",
"W  c #2B4357",
"Q  c #394656",
"!  c #184867",
"~  c #1C4F71",
"^  c #1C5377",
"/  c #274766",
"(  c #394668",
")  c #3A4975",
"_  c #29567B",
"`  c #325171",
"'  c #385678",
"]  c #35607A",
"[  c #454859",
"{  c #55455C",
"}  c #45545D",
"|  c #67435D",
" . c #494967",
".. c #574966",
"X. c #495667",
"o. c #565769",
"O. c #4A4975",
"+. c #495978",
"@. c #555775",
"#. c #5A5976",
"$. c #5C5C7A",
"%. c #654868",
"&. c #75476A",
"*. c #6E4F71",
"=. c #675A76",
"-. c #785877",
";. c #506371",
":. c #596679",
">. c #656679",
",. c #74687B",
"<. c #68747B",
"1. c #73727F",
"2. c #8E1B55",
"3. c #8D255D",
"4. c #8F3468",
"5. c #A72768",
"6. c #B03372",
"7. c #C4327A",
"8. c #8C4C75",
"9. c #994976",
"0. c #865577",
"q. c #A8457A",
"w. c #1E5F89",
"e. c #295985",
"r. c #395886",
"t. c #27638B",
"y. c #386588",
"u. c #296796",
"i. c #376796",
"p. c #33749D",
"a. c #2C73A7",
"s. c #3076AB",
"d. c #3777A9",
"f. c #4C5786",
"g. c #755E83",
"h. c #486787",
"j. c #576886",
"k. c #4C7194",
"l. c #587798",
"z. c #666784",
"x. c #766986",
"c. c #677787",
"v. c #757886",
"b. c #687A97",
"n. c #797693",
"m. c #4E7BA6",
"M. c #D13582",
"N. c #925A82",
"B. c #AF5485",
"V. c #856685",
"C. c #996789",
"Z. c #857B98",
"A. c #937790",
"S. c #AF6E93",
"D. c #BA6996",
"F. c #A87897",
"G. c #C94889",
"H. c #CD5893",
"J. c #E15B9D",
"K. c #C76698",
"L. c #CF6C9D",
"P. c #CD75A3",
"I. c #D77AAA",
"U. c #E675AD",
"Y. c #2E82BB",
"T. c #3985B9",
"R. c #78848B",
"E. c #6A8399",
"W. c #748699",
"Q. c #4982AB",
"!. c #5984A7",
"~. c #4787B9",
"^. c #548AB6",
"/. c #5893BC",
"(. c #768BA7",
"). c #7191AD",
"_. c #6895B7",
"`. c #7AA0BF",
"'. c #338BC5",
"]. c #368AC6",
"[. c #3997D8",
"{. c #399DE3",
"}. c #4C91C4",
"|. c #4894CA",
" X c #4B9CD5",
".X c #679DC4",
"XX c #4EA3DD",
"oX c #58A4D9",
"OX c #76A5C7",
"+X c #65A9D8",
"@X c #71ADD4",
"#X c #4DAAEB",
"$X c #66B4EA",
"%X c #6AB7EC",
"&X c #77BAE9",
"*X c #7EC3F1",
"=X c #8C8A96",
"-X c #89949B",
";X c #AB819D",
":X c #8D8FA9",
">X c #9897A4",
",X c #B091AD",
"<X c #9BA5AB",
"1X c #8CA7BD",
"2X c #99AAB6",
"3X c #ACA6B1",
"4X c #A7AAB4",
"5X c #A9B3B9",
"6X c #B7B7BD",
"7X c #DA8BB3",
"8X c #CF90B2",
"9X c #E78EBA",
"0X c #C9A7BD",
"qX c #92B1CB",
"wX c #99AED2",
"eX c #87B8DA",
"rX c #ACB4CC",
"tX c #B9B9C5",
"yX c #ED9AC4",
"uX c #D7A9C6",
"iX c #CEB4C9",
"pX c #E7AAC9",
"aX c #F1B2D2",
"sX c #9AC0DB",
"dX c #B1C5D3",
"fX c #B8C9D6",
"gX c #88C5EB",
"hX c #99C7E6",
"jX c #87C8F4",
"kX c #98D1F7",
"lX c #ABCCE7",
"zX c #B8D5E9",
"xX c #A8D9F8",
"cX c #B9DBF4",
"vX c #BDE4FC",
"bX c #C6C6CC",
"nX c #CDCCD5",
"mX c #D5D7D9",
"MX c #E8C8DA",
"NX c #EFC9DD",
"BX c #CED6E8",
"VX c #F8CCE2",
"CX c #E7D7E5",
"ZX c #E8D2E8",
"AX c #FAD7E9",
"SX c #DAE3E8",
"DX c #C8E6FA",
"FX c #DAEBF7",
"GX c #D9F1FD",
"HX c #E7E9EB",
"JX c #EBE9F3",
"KX c #FCEAF4",
"LX c #E7F5FC",
"PX c #F6F6FA",
"IX c #FEFDFE",
/* pixels */
"+ <.IXPXX.o p w + E sXXX_ ;XIXvXi.B.AXGXm.N.KXkXu.< x v -.:.S C.tXk.%.4X.Xk # O B 8X>.- 2.aX-X- p B.[ @ - _ d 8 6XIXeX: p 2.< < ",
"l D.KX4X2 X e.~ 7 5XIXgXP 7.AX<X- 2.yX:X: 4.AXcXr.C.fX}.4 @ = I.LXoX4 < : 8.<.0 3.AXBXr.B.KXDXy.5.NXnXc o K z + } hX#Xf.6.I. .+ ",
"P 6.L.Q , ;.$X'.U yXIXv.  V &.9 O > H $ X N C. .= L.IX+Xd 5 w D.SX~.4 @ r 7XLX^.*.CXkXu.[ bXjXu.%.JXLXQ.J J.3X8 O _ s.h S.IX6X7 ",
"* t F # e nXLX^.u 7.A.7 O m k + c ^.^ $ E k.f . * 9.tXk.8.fX/.x x Z F.W.I 8XGXT.4 Q m.k . e p.j , R.*Xs.U NXIXn.o u z # ;.PXLXX.",
"  l a.k -.KXHXQ   Z 0 # o.&Xs.c bXDXT...mX*X! 9 :.` 5   q.KX+Xg . y aXvXt.c k.` + . u &.8   A { < % ' k 1 <XLX+XD 6.C.7 1 2XjX~.",
"@ l.#Xd.5.U.=X# 6 d.t.x nXLX.XT aXJXj.4.AXcXf.8XDXa.+ % T iX!.[ X.H uXhX~ . & 4.=X0 3.VX2X> G.MXo.  C S + x }.[.P I.KX<.. b [.'.",
"Q SXcX` r 3.: # R.xX[.T yXHXX.= q.v.% t D.:.; L.LX^.%.1X' 7 - P.DXi.e n ..Q u I.LXm.C.IXgX) 8XIX@XF J.nXc X l b % <XIXrX- o ` d ",
"=XIXmXq   _ R c CXIXE.= 5.*.+ & M < < c W <   Y v.z K.GXd., o P.DXt.+ = I.zXO.0XcXu.e (.].d o.hX].[ MXIX).; 3.H , Q zX$X( 2.3.1 ",
"H.NXR.+ W $X'.T U.nXx   n f # c.oX! o.lXs.7 :.i.< X 4.mXk.=.j.#.c...X.Z pXxX~ 9 +.k + % G 3 @ m ! , c.xX[.T U.bXe % i.'.) G.pX;.",
"2.6.q < <XLX_.; 3.H + b +Xa.{ HXvXk.D.IX@X*.HX&Xj Q O.c > pXhXg . 9.SXk.o.!.h . i F.E t P.R.& V &.< 2 i.^ c CXIX<.  s b $ ,XIX6X",
"= D 4 l mXIX:.  z ! 1 <XLX.XJ yXbXl 2.0XX.B pXwX*.BX/.$ * 8XhXW 2 B.DXe.. u F.[ 4.KXOX8.AXzXP K.CXo.o B q < -XxX}.A 6.H . :.IXDX",
": d.Y.U J.0X9 1 _. XO.I.KX<.  3.[ @ ; v < - &.E i aX@X( :. .n A.1XO.j.( 6 3.JX/.x.DXs.c dXoX/ 0XLX/.C I.=X# q T.t.T aXiX7 9 qX#X",
"X.lXoXv V F + X.PXkXn 2.C.8 % _ j 7 ).d.4 :.y., - 0.X.S.cX!   D.lXj * P.OXx.zXt.1 +.b , x / + X.+Xu.-.KXBXe = D , [ JXJXQ   e.'.",
"<XIX4X& : u.j C.KXtX% - m , o.lX}.*.JXgX$.MX&XW W._ . 4.BX' l C.`.k > pX@X8 Q n @ B V.q i C.8 X n 3 x fX*Xf.5.D.e 3 5XxXy.= F x ",
"uXPX<.+ ;.%Xs.3.H.o.+ X.XXe.F.IX1XA 7X<Xs I.rX%.ZX/.8  .X.*.rX/ > ,Xb.R.h.@ N 0X .K.LXf.D.KXj.B D.Q @ ` s.b 8XIX<.. ` {.i.5.G.S ",
"M.L.x < 6XLXl.o A f 7 tXGXl.C I.X.  F x . F c ; 8X(.A.OX, J BX! ; iXk.$ -.>.B.DXy.>XgX/ >XxXk.S.PX-X* B l , <XLX).o > m 5 F.KX-X",
"y J 4 l MXPX} O y.'.( 7XCX}   D 4 8 !.~ x ^.k 6  .6 9.lXW H n.=.#.:X` : 8XOX:._.d q ` $ x i.d <.vX}.T U.v.# Q $XT.K 7.{ + R.IXnX",
"o e.Y.P G.D.7 e nXkXO.V 8.< 9 .Xu.=.JX+XV.JX^.Z.OX4 Z x.V.OX3 F._.- A.z.rXy.O L x u S.c r &.< 6 i.! -.IXnX6 ; _ j 0.AX<X# } DXgX",
"6 `.%X( t F 3 [ AXSXx & ` j =.PXeXL 7X>X> P.v.8.BXf.).g L wXf C.).- 0Xy.q  .a 0X(.S.FXj.D.ZX} t L 1 E sX$XP 5.| # ;.IXnX6 : T.{.",
"E HXFXE   d.Y.U J.A.$ E gX}.T 9X=X% A x @ G 8 - V.H iXy.S x.v.;.#.z.:Xk J tXx.lX_ c.+Xb 4XkXf.L.MXE & e.^ %.aX0X5 x sX$Xl = ( ! ",
"o.KXnX8 x dX*Xc t G 3 v.IXrX- A c < j.m.W qXy. .k.$ 0.x.:Xf ;X' &.).z v.A..Xf O.5 w n @ Q e.f fXvX+.p T 1 E HXDXc o p.Y.U 7.K # ",
"Y J.N.# X.IXmX8 6 }.s.T I.,.@ Q }./ 0XDXz.8XwXV.fX+.j.l ,X` ,.+.V.+.%.1XQ  .> F. .B.3X> 4.[ O +.T. .9XnXx 2 `.#XM p F , %.NX3X5 ",
"v p H d &.yX,X, Q FXsX0 y n 3 >XGXE.K ;Xe a %.: C.=.3X` =.x.j.x.h.=.n.' F :XA.sXh.nX.XV.AX(.; J 8 9 nXDX} o ) ~ U U.F.< } PXmXe ",
"0 o a.'.P 2.F , *.KX6X5 x +Xd.8.7Xo.X ( W E !.h +.f &.n.b. .j.x.X.Z.[ =.:Xk. .` 1 +.d X.&Xh.D.NX} O k.[.O.6.8.O } IXmX7 x zXhXx ",
"5 8 qXkXn   i.s.I 6.&.$ >.PXwX% Z / 9 5XeXz.iX(.,X_.+.Q Z.O.z.>.#.z.*.E.X.l 0.#.Y F.2 Z b 1 4XxX+.y I 4 } AXbX7 c BXhXq & ~.[.v ",
"# x HXHXE 5 qXgXQ * r.e.&.I.A.. X.jXm.9.uXc F ..> V.-.(. .z.$.=.z.#.z.( Z.x.wXj.rXOX0.pX>.  ) w. .9X0X5 E BXlX0 % T.[.D p ( R Y ",
". c aXbXe e HXJXE % qXjXQ r ( R -.VX:X& G / x `.` j.W =.z.#.z.z.$.z.#.x.j.G W : +.4 b.hXj.9.C.1 Q SXlXq - ~.].A V G h 4.J.| + x.",
"^ ( 5.5.8 q I.8Xe q mXJXQ % OXgX .B  .4 z.zXb.C.:X*.:Xz.@.=.@.:.$.#.z.....:X-.,Xv.; %.h Q SXfX0 : ~.d.J 3.n 5 C.yXo.# >XIXR.@ c.",
"#Xd.* z T.i.B K / b q.K.l 7 0XAXQ % `.@X=.9.=.% ..`  .@.>.@.$.$.$.$.=.j.z.` @.!.+.uXrX0 w Q.p.T q.n 7 ;XVXo.< 4XPXR.+ -XIX-X+ ;.",
"DX).% Q jX_.& x #X}.; > d.i.J 4.W k F.pX[ @ b._.z.;Xz.-.$.$.@.@.@.@.$.>.z.-.Z.0 c l.r.0.P.c 1 0XKXX.< 2XGX:.. E.xXj.  r.*Xi.  b ",
"IX3X< >.IX6X< } PXdX1 E cXdXq q eX@Xc u k.k.-.F.O.x z.j.$.@.@.X.O.@.$.#.o.j.+.;XtXl 2 qXxXE & !.%X .o h. X( r ) '.) y P a.O.p F ",
"VX=X+ o.VX,X< [ NX0X1 c MX0X8 e iXpXx 8 6XiXn 3 :X:X@.@.$.$.O.n  .$.$.>.j.=.*.h.] 0.9.( ! 0.B.P g &.H...4 &.H.%., U J.&.# F J.B.",
"7.Y h G 6.Y k M 3.Y ^ ` K K t.t.A F k.Q.G u (.qX[ v z.x.$.#.o.(  .@.$.z.-.j.(.S w qXlXc O rXJXo., 4XIX<.+ =XIX=X+ R.IX>X, <.PXbX",
"= M [.u.o b XX~.* l &XOX6 q lXzXl 8 tXMXQ f x.8.c.:X$.:.$.@.@.O.@.@.#.#.@...v 4X,XW / &.K h.~.v * !.*XX.X E.vXc.O c.LX-X+ <.IXbX",
"  ( xX1X& [ GXfX6 E JXSXe q uX8XQ k &.J l.sXo.4 $.D O.#.z.@.@.$.@.#.#.j.j.(.Z./ h.Z 0 fXmXc 3 S.D. .! F B f.]./ o r.#Xy.  +.gX_.",
"+ o.IXbX5 Q AXnX8 q P.K.b ! J u m.gXX.@ x.D.>.wXZ.l.Z.z.@.$.@.$.$.$.j.=.=.z #.F ..iXC.y.m.: q zXCXQ 5 ,XpXG 3 4.6.I _ P p ) '.t.",
"+ [ NX8X6 q B.6./ e.N > ~.gX .O >XVX,._ f.% c 0.S x.S ;.z.$.$.z.z.$.=.@.j.:Xb.tXz./.b.# G D.T d.}.0 6 fXLX} < 6XVXo.< 8.J.L 4 F ",
", q 6.3.` u.N ; ^.&X( O <XPXv., I B  .cXtX/ ^.Q ' j.b.x.@.z.$.=.$.:.@.n.H X.l r.c 1 &.i j.LX<X3 n 3.A }.oXq 6 fXPX} < 6XKX:., V.",
"u.s.> - }.%XQ O 2XIXv.+ *.H.%.T._.1 e S.L :XuXg.rX&.g.n n.#.z.:.=.$.x.( Z.:XN.o.F.H rXuX+.Q.+.+ 1.AXF.d n B N |.oXe 6 fXPX} < 4X",
"XX$Xc % 2XIX<., V.aX0.R ' ; c BXCXQ _ n .  .A q ..8 b.b.=.j...x.j...W.%. ./ 1Xf.sXZ.i.OX9 5 T i l.DXW.< o.9X9.! ` u : oX+Xe 1 dX",
"dXLX>.+ -XKXA.+ G 2.D oXsXx 7 F.4.j.xX<Xb /.Q y.(.b.,XG X.:XQ Z.X.x.+.j.,Xz ..& / c , { > [ ZX8X( s.b O -XIX-X+ H G.4.w.u.; : |.",
"5XIX=X+ H G.Y a.s.- 6 fXPXo.g n *  .pX8.).ZXx.rXC.=.S ` :X .z.>.$.+.A.0 _.n.rXY ,.B.z tXP.@.gX5X< l 4.i ^.kX;.O -XKXA.+ Z 5.Y a.",
",.9Xq.h ` u ; @XcX} $ A.L.I  XeX9 8 H & o.8.: *.: W b.).0./ ;Xb >Xq wXU ..l _.>X!.BXg.+XnXW _ n . <.VXD./ a.l & 2XIXv.+ x.aX9.3 ",
"z 2.A ]. Xx % 5XIXv.3 n t w BXAX..a.).3 R ( 3 m.@.).,XG  .j.A.b 4XS j.j.3Xu b c f !.x k ) @ x 9.i !.GX>X$ z 3.A |.%XE < 6XIXR.+ ",
"s.: o OXGXz.+ ,.9X4.a.|.x < A.B.P lXNX+.@XtXf.zXC.Z.L 4 qX%.+.Z.P (.&.g wXV.3XT q &.- c 9.r b.KXS.e. XQ + =XaX9./ u.* : qXLX} + ",
"$XX.@ -XIX<X< l V ; .XLXR., n > 2 ,XB.S mXD...,Xu f j.] iXu y.3X& _.F.l +.W @X8Xj.ZX4.(.JXS.~.cXR.$ n u : dXIX<.+ F 3.F [. Xq % ",
"PX>X+ X.yXB./ Y.b O =XKXS._ oX;., c > < { u O ( x e.nX*.#.G j.,Xz h.x.:X9.O y.c./ hX=Xt.lXc.g i.8 < A.G.I  XsXx $ 3XyXT ! r.o - ",
"IXbX6 : 3.y d.kX-X< l B.B l.GX0Xk ~.E.< i.j.f @X,Xl.iX> R rX| b qX8.# .X0XS 0.: 3 ' l 4 ` 6 $ T t c SXAX..^ e.  c HXPX} + K 2.P ",
"aXL.G u./   o.PXCXe j M   [ MXH.f.vXMX+.gXMX$.cXD.0 ..c _ BXJ 4 sXB.. y.n.m.CXY X.B.= x N.= } NXH.f.*XdX9 $ Y y ' kXdX8 q 0XU.H ",
"4.2.r.#X_.5 e bX9X%.'..Xq $ U t e 0XH.z dXK.> ,.J . t.fX*.x. .[ E.,.(.8.% ~ lXV.OXAXT 1XAXB.!.GX6Xx a.` O X.pXG.f.[.r.X o.PXSXx ",
") o z lXJXX.# L 2.z eXPXv.4 u.x < c N . c A O h !.} ^.NXN $ .XuX; j hX8X- c  .7 p.zXo.T.DX,.~ oXX.+ z i & <XIX3X< b z o E.LX3X< ",
"}.0 1 tXIXA.4 _ :   -XKXD.i.*X4X7 ^ !.7 h /.} _ vXP.o.A.w 3 @XuX; 4 OX;Xj.iXB O b n $ k h.5 3 n & 8 ,XH.F oXDX:.+ H 6.J '.$XX.< ",
"DX:.+ :.9X6.i.#Xj.+ x B.p  .GXVX*.oXLXZ.d.GX8Xf.mX9.X h OXF.@.=.j.=XZ 8 T.HX9.X.,Xi 1 %.B X o.K.y @.PXZX{ u.d.% 7 6XaX8.~ a.-   ",
"IX6X3 6 2.r r.DXSXE 3 M * 1 >XH.u ).AX6.X.CXq.- [ G 6 ! xX8X* , +XNXi O _ qXo..XKXq.@.HXK.D fXKXB.d.kX<X5 3 Z o } PXJX[ + F i : ",
"IXpXc ~ _   l mXKX0.e.XXX.$ q A   x 0.y @ [ Z O 4 }.tX#.2XC.: 8 .XiXU <.&.: $ a.fX=.T.DX0X' $XSX} k s.x # o.H.C d.kX2X1 x D.7.U ",
"D.M.U [.+Xc + <.L.2.d.vXmXx ! ~.x $ / ( @ d /.c.m gXVXB % m qX,XS e e.DX7X= 1 [ b < ! /.Q , p.' $ 5 F * l mXAX9.e.[.b + <.IX8Xl ",
"Z p - .XLX<X$ 6 J o Q HXVX8.].cX6Xx ].cX1.e.xXAXU W.,Xr + ! xXaXr + ~ xX8XP 5XK.= @ G N . 7 L ; % R.U.V k.DXHXQ < M * & dXIX>X< ",
"s.l   <.IXCXS ~ p.& , x.H.y j.PXaXU OXIXI.P dX9Xy % x k.v. .1X,XD X...X.E u.vXaXF R.MX3.- -XyXK ( HXKX0.a.$Xc.@ q q.2.( $XzXQ + ",
"#X!.< 9 6XU.Y ].jXR.$ 6 D * 1 =XG.= Q 0X5.& e %.w , R *XAX4.% 9 Q.FXK.o . ! gX>X` gXIXD.h.DXKX9.d.xXnXx 4 e.- @ -XVXG.) [.i.% 7 ",
"xXJXX.+ F 2.= l.LXJX[ R ].Q @ $ G & , e G % + ~ @X=XO.eXNXC . < T.GXI.> Q %.z < 4 ].rX[ _ %XrXe ! ].W # q 3.= n SXIX=X, / w   ;.",
"mXIX3X1 j n   x nXVX6.d.jXmXQ g [.E.7 h  X2XQ a.DXAXK e }  .c.=.+.c...m.FX7Xr . x P 6 + 4 r.q + q D   7 <XU.3.d.kXnXx < L 2.u T.",
":.mXI.I '.|.x + X.H.B n BXIXD.i.*XPX;X_ gXIXK. .dX9Xi . , a.DXaXy . # T.DXaXF c.iX5.o 9 -.V   l ,X6.= c.IXJX&.t.[.( + E iXJ.U '.",
"e | 5.A |.vX4X5 $ D * O <.pX6.> 2XIXH.Z :XCX6.o 8 G  .Q e d.DXpXN 2 e ' (.o._ gXIXK.G 1XKXG.z qXIX9XU XXDX4X7 7 (   % 5XIXiXl j ",
"<.{ r   c.PXPX=.d '.` < , L i   9 ;X5.o 2 o.A   , d XXLXP.D ;...) qX0XC O + k $XSX,.u.kXIXP.r.%XPX3Xf Y..Xx # e 5.r n DXIXc.# % "
};
